<?xml version="1.0" encoding="utf-8"?>
<!-- Generator: Adobe Illustrator 27.8.1, SVG Export Plug-In . SVG Version: 6.00 Build 0)  -->
<svg version="1.1" id="圖層_1" xmlns="http://www.w3.org/2000/svg" xmlns:xlink="http://www.w3.org/1999/xlink" x="0px" y="0px"
	 viewBox="0 0 32 32" style="enable-background:new 0 0 32 32;" xml:space="preserve">
<style type="text/css">
	.st0{fill:#FFFFFF;}
</style>
<g>
	<path class="st0" d="M8.4,5C7.1,5,6.1,6,6.1,7.2s1,2.2,2.2,2.2c7.8,0,14.2,6.4,14.2,14.2c0,1.2,1,2.2,2.2,2.2c1.2,0,2.2-1,2.2-2.2
		C27,13.4,18.7,5,8.4,5z"/>
	<path class="st0" d="M8.4,12.6c-1.2,0-2.2,1-2.2,2.2c0,1.2,1,2.2,2.2,2.2c3.6,0,6.6,2.9,6.6,6.5c0,1.2,1,2.2,2.2,2.2
		c1.2,0,2.2-1,2.2-2.2C19.4,17.6,14.4,12.6,8.4,12.6z"/>
	<path class="st0" d="M8.4,20.3c-1.9,0-3.4,1.5-3.4,3.3C5,25.5,6.5,27,8.4,27s3.4-1.5,3.4-3.4C11.7,21.8,10.2,20.3,8.4,20.3z"/>
</g>
</svg>
