<?xml version="1.0" encoding="utf-8"?>
<!-- Generator: Adobe Illustrator 27.8.1, SVG Export Plug-In . SVG Version: 6.00 Build 0)  -->
<svg version="1.1" id="close" xmlns="http://www.w3.org/2000/svg" xmlns:xlink="http://www.w3.org/1999/xlink" x="0px" y="0px"
	 viewBox="0 0 32 32" style="enable-background:new 0 0 32 32;" xml:space="preserve">
<style type="text/css">
	.st0{fill:#FFFFFF;}
</style>
<path class="st0" d="M17.8,16L31.6,2.1c0.5-0.5,0.5-1.3,0-1.8c-0.5-0.5-1.3-0.5-1.8,0L16,14.2L2.1,0.4C1.6-0.1,0.8,0,0.4,0.5
	C0,0.9,0,1.7,0.4,2.1L14.2,16L0.4,29.8c-0.5,0.5-0.5,1.2-0.1,1.7c0,0,0,0,0.1,0.1c0.5,0.5,1.2,0.5,1.7,0c0,0,0,0,0,0L16,17.8
	l13.9,13.8c0.5,0.5,1.2,0.5,1.7,0.1c0,0,0,0,0.1-0.1c0.5-0.5,0.5-1.2,0.1-1.7c0,0,0,0-0.1-0.1L17.8,16z"/>
</svg>
