<?xml version="1.0" encoding="utf-8"?>
<!-- Generator: Adobe Illustrator 27.8.1, SVG Export Plug-In . SVG Version: 6.00 Build 0)  -->
<svg version="1.1" id="圖層_1" xmlns="http://www.w3.org/2000/svg" xmlns:xlink="http://www.w3.org/1999/xlink" x="0px" y="0px"
	 viewBox="0 0 32 32" style="enable-background:new 0 0 32 32;" xml:space="preserve">
<style type="text/css">
	.st0{fill:#FFFFFF;}
</style>
<g>
	<path class="st0" d="M28.2,5.5L28.2,5.5v21v0H3.8c0,0,0,0,0,0v-21l0,0H28.2z M28.2,3.8H3.7C2.8,3.8,2,4.5,2,5.5v21
		c0,1,0.8,1.7,1.7,1.7h24.5c1,0,1.8-0.8,1.8-1.8v-21C30,4.5,29.2,3.8,28.2,3.8L28.2,3.8z"/>
	<path class="st0" d="M24.7,9.9c0,1.4-1.2,2.6-2.6,2.6c-1.4,0-2.6-1.2-2.6-2.6s1.2-2.6,2.6-2.6C23.6,7.3,24.7,8.4,24.7,9.9L24.7,9.9
		z"/>
	<path class="st0" d="M26.5,24.8h-21v-3.5l6.1-10.5l7,8.8h1.8l6.1-5.2C26.5,14.2,26.5,24.8,26.5,24.8z"/>
</g>
</svg>
