<?xml version="1.0" encoding="utf-8"?>
<!-- Generator: Adobe Illustrator 27.8.1, SVG Export Plug-In . SVG Version: 6.00 Build 0)  -->
<svg version="1.1" id="Layer_1" xmlns="http://www.w3.org/2000/svg" xmlns:xlink="http://www.w3.org/1999/xlink" x="0px" y="0px"
	 viewBox="0 0 32 32" style="enable-background:new 0 0 32 32;" xml:space="preserve">
<style type="text/css">
	.st0{fill:#FFFFFF;}
</style>
<g id="g5" transform="scale(.58824)">
	<path id="path7" class="st0" d="M27.2,10.5c0,0-14.9,0-18.6,1c-2,0.5-3.6,2.2-4.2,4.2c-1,3.7-1,11.4-1,11.4s0,7.8,1,11.4
		c0.5,2,2.2,3.6,4.2,4.2c3.8,1,18.6,1,18.6,1s14.9,0,18.6-1c2-0.5,3.6-2.2,4.2-4.2c1-3.7,1-11.4,1-11.4s0-7.8-1-11.5
		c-0.5-2-2.2-3.6-4.2-4.2C42.1,10.5,27.2,10.5,27.2,10.5z M22.5,20.1l12.4,7.1l-12.4,7.1V20.1z"/>
</g>
</svg>
